<svg width="26" height="26" viewBox="0 0 26 26" fill="none" xmlns="http://www.w3.org/2000/svg">
<path d="M13.0005 0C5.82054 0 0 5.8216 0 13.0005C0 20.1805 5.82054 26 13.0005 26C20.1805 26 26 20.1805 26 13.0005C26 5.8216 20.18 0 13.0005 0ZM19.5491 10.3793C19.556 10.5197 19.5586 10.6607 19.5586 10.8032C19.5586 15.1329 16.2632 20.1246 10.2373 20.1246C8.38739 20.1246 6.66472 19.5824 5.21499 18.6532C5.47157 18.6833 5.73185 18.6986 5.99635 18.6986C7.53159 18.6986 8.94436 18.1749 10.0652 17.2964C8.63182 17.2695 7.42231 16.3218 7.00524 15.0204C7.2048 15.0595 7.41017 15.079 7.62135 15.079C7.92016 15.079 8.20947 15.04 8.48453 14.9645C6.98518 14.6635 5.85591 13.3384 5.85591 11.7525C5.85591 11.7382 5.85591 11.7245 5.85644 11.7102C6.2978 11.9557 6.80304 12.103 7.34048 12.1205C6.46093 11.5318 5.88284 10.5303 5.88284 9.39311C5.88284 8.79284 6.04439 8.22953 6.32631 7.74594C7.94233 9.72783 10.3566 11.0324 13.0797 11.1686C13.0238 10.9294 12.9947 10.6786 12.9947 10.4221C12.9947 8.61335 14.4613 7.1462 16.2711 7.1462C17.2135 7.1462 18.0645 7.54427 18.6622 8.18044C19.4087 8.0342 20.1098 7.76072 20.7428 7.38536C20.4973 8.15087 19.9783 8.79285 19.3015 9.19778C19.9651 9.11858 20.5965 8.94225 21.1836 8.68198C20.7454 9.34032 20.1895 9.91736 19.5491 10.3793Z" fill="#9B9B9B"/>
</svg>
