<svg width="11" height="7" viewBox="0 0 11 7" fill="none" xmlns="http://www.w3.org/2000/svg">
<path d="M10.7916 2.31146C10.8754 2.25495 11 2.30781 11 2.39714V6.125C11 6.60807 10.5381 7 9.96875 7H1.03125C0.461914 7 0 6.60807 0 6.125V2.39896C0 2.30781 0.122461 2.25677 0.208398 2.31328C0.689648 2.63047 1.32773 3.03333 3.51914 4.38411C3.97246 4.66484 4.7373 5.25547 5.5 5.25182C6.26699 5.25729 7.04687 4.65391 7.48301 4.38411C9.67441 3.03333 10.3104 2.62865 10.7916 2.31146ZM5.5 4.66667C5.99844 4.67396 6.71602 4.13438 7.07695 3.91198C9.92793 2.15651 10.1449 2.00339 10.8023 1.56589C10.927 1.48385 11 1.35625 11 1.22135V0.875C11 0.391927 10.5381 0 9.96875 0H1.03125C0.461914 0 0 0.391927 0 0.875V1.22135C0 1.35625 0.0730469 1.48203 0.197656 1.56589C0.855078 2.00156 1.07207 2.15651 3.92305 3.91198C4.28398 4.13438 5.00156 4.67396 5.5 4.66667Z" fill="#FFA41B"/>
</svg>
