<svg width="22" height="22" viewBox="0 0 22 22" fill="none" xmlns="http://www.w3.org/2000/svg">
<path d="M11 0C4.92486 0 0 4.92486 0 11C0 17.0751 4.92486 22 11 22C17.0751 22 22 17.0751 22 11C22 4.92486 17.0751 0 11 0ZM7.88197 16.4427H5.43043V8.75072H7.88197V16.4427ZM6.6562 7.74331C6.3834 7.74331 6.11673 7.66242 5.88991 7.51086C5.66308 7.3593 5.48629 7.14388 5.3819 6.89185C5.2775 6.63982 5.25019 6.36249 5.30341 6.09493C5.35663 5.82737 5.48799 5.5816 5.68089 5.38871C5.87379 5.19581 6.11956 5.06444 6.38712 5.01122C6.65467 4.958 6.932 4.98532 7.18404 5.08971C7.43607 5.19411 7.65149 5.3709 7.80305 5.59772C7.95461 5.82454 8.0355 6.09122 8.0355 6.36402C8.0355 6.72983 7.89018 7.08066 7.63151 7.33933C7.37284 7.59799 7.02202 7.74331 6.6562 7.74331ZM16.7234 16.4427H14.3172V12.2369C14.3172 12.0232 14.3509 10.6062 13.1476 10.6062C12.9338 10.6009 12.7218 10.6473 12.5297 10.7413C12.3376 10.8354 12.1711 10.9744 12.0441 11.1466C11.8231 11.4415 11.7051 11.8008 11.7082 12.1693V16.4426H9.30488V8.75072H11.5915V9.83026C12.1388 8.99061 12.8285 8.68325 13.507 8.55955C14.7113 8.33998 16.7232 9.07311 16.7232 11.2623L16.7234 16.4427Z" fill="#005082"/>
</svg>
