<svg width="22" height="22" viewBox="0 0 22 22" fill="none" xmlns="http://www.w3.org/2000/svg">
<path fill-rule="evenodd" clip-rule="evenodd" d="M10.958 22L10.9678 22H10.9644L10.958 22ZM11.0356 22H11.0322L11.042 22L11.0356 22ZM10.9244 21.9998L10.935 21.9998H10.9289L10.9244 21.9998ZM11.0711 21.9998H11.065L11.0756 21.9998L11.0711 21.9998ZM10.892 21.9995L10.8991 21.9996L10.8934 21.9995H10.892ZM11.1066 21.9995L11.1009 21.9996L11.108 21.9995H11.1066ZM11.1421 21.9991L11.1396 21.9992L11.1492 21.9991L11.1421 21.9991ZM10.8508 21.9991L10.8604 21.9992L10.8579 21.9991L10.8508 21.9991ZM11.1775 21.9986L11.1717 21.9987L11.1836 21.9985L11.1775 21.9986ZM10.8164 21.9985L10.8283 21.9987L10.8225 21.9986L10.8164 21.9985ZM11.213 21.998L11.2051 21.9982L11.216 21.9979L11.213 21.998ZM10.784 21.9979L10.7949 21.9982L10.787 21.998L10.784 21.9979ZM10.7437 21.9971L10.7534 21.9973L10.7516 21.9973L10.7437 21.9971ZM11.2484 21.9973L11.2466 21.9973L11.2563 21.9971L11.2484 21.9973ZM10.7084 21.9962L10.7216 21.9966L10.7163 21.9964L10.7084 21.9962ZM11.2837 21.9964L11.2784 21.9966L11.2916 21.9962L11.2837 21.9964ZM11.3191 21.9955L11.3104 21.9957L11.324 21.9954L11.3191 21.9955ZM10.676 21.9954L10.6896 21.9957L10.6809 21.9955L10.676 21.9954ZM10.645 21.9944L10.6547 21.9947L10.6456 21.9944L10.6373 21.9942L10.645 21.9944ZM11.3544 21.9944L11.3453 21.9947L11.355 21.9944L11.3627 21.9942L11.3544 21.9944ZM11.3897 21.9933L11.3849 21.9934L11.3997 21.9929L11.3897 21.9933ZM10.6003 21.9929L10.6151 21.9934L10.6103 21.9933L10.6003 21.9929ZM10.5681 21.9917L10.5837 21.9923L10.575 21.992L10.5681 21.9917ZM11.425 21.992L11.4163 21.9923L11.4319 21.9917L11.425 21.992ZM10.5365 21.9904L10.5518 21.9911L10.5398 21.9906L10.5365 21.9904ZM11.4602 21.9906L11.4482 21.9911L11.4635 21.9904L11.4602 21.9906ZM10.4923 21.9885L10.5086 21.9892L10.5046 21.9891L10.4923 21.9885ZM11.4954 21.9891L11.4914 21.9892L11.5077 21.9885L11.4954 21.9891ZM10.4605 21.987L10.4775 21.9878L10.4695 21.9875L10.4605 21.987ZM11.5305 21.9875L11.5225 21.9878L11.5395 21.987L11.5305 21.9875ZM10.4292 21.9854L10.4463 21.9863L10.4343 21.9857L10.4292 21.9854ZM11.5657 21.9857L11.5537 21.9863L11.5708 21.9854L11.5657 21.9857ZM11.6008 21.9839L11.5853 21.9847L11.5991 21.984L11.6153 21.9831L11.6008 21.9839ZM10.4009 21.984L10.4147 21.9847L10.3992 21.9839L10.3847 21.9831L10.4009 21.984ZM11.6359 21.9819L11.629 21.9823L11.6465 21.9813L11.6359 21.9819ZM10.3535 21.9813L10.371 21.9823L10.3641 21.9819L10.3535 21.9813ZM10.3225 21.9795L10.3399 21.9805L10.329 21.9799L10.3225 21.9795ZM11.671 21.9799L11.6601 21.9805L11.6775 21.9795L11.671 21.9799ZM10.2929 21.9776L10.3086 21.9786L10.294 21.9777L10.2793 21.9768L10.2929 21.9776ZM11.706 21.9777L11.6914 21.9786L11.7071 21.9776L11.7207 21.9768L11.706 21.9777ZM11.741 21.9754L11.7358 21.9758L11.7524 21.9746L11.741 21.9754ZM10.2476 21.9746L10.2642 21.9758L10.259 21.9754L10.2476 21.9746ZM10.2166 21.9725L10.233 21.9737L10.224 21.9731L10.2166 21.9725ZM11.776 21.9731L11.767 21.9737L11.7834 21.9725L11.776 21.9731ZM10.1857 21.9703L10.2007 21.9714L10.1891 21.9706L10.1857 21.9703ZM11.8109 21.9706L11.7993 21.9714L11.8143 21.9703L11.8109 21.9706ZM10.1442 21.9672L10.1573 21.9682L10.1542 21.9679L10.1442 21.9672ZM11.8458 21.9679L11.8427 21.9682L11.8558 21.9672L11.8458 21.9679ZM11.8807 21.9652L11.8744 21.9657L11.8878 21.9646L11.8807 21.9652ZM10.1122 21.9646L10.1256 21.9657L10.1193 21.9652L10.1122 21.9646ZM10.0811 21.9621L10.0924 21.963L10.0844 21.9624L10.0811 21.9621ZM11.9156 21.9624L11.9076 21.963L11.9189 21.9621L11.9156 21.9624ZM10.0468 21.9592L10.0502 21.9595L10.0496 21.9595L10.0468 21.9592ZM11.9504 21.9595L11.9498 21.9595L11.9532 21.9592L11.9504 21.9595ZM11.9852 21.9564L11.9821 21.9567L11.9899 21.956L11.9852 21.9564ZM10.0101 21.956L10.0179 21.9567L10.0148 21.9564L10.0101 21.956ZM9.9779 21.9531L9.9837 21.9536L9.98009 21.9533L9.9779 21.9531ZM12.0199 21.9533L12.0163 21.9536L12.0221 21.9531L12.0199 21.9533ZM9.28125 21.8663C4.02536 21.0402 0 16.4865 0 11C0 4.92896 4.92895 0 11 0C17.0711 0 22 4.92896 22 11C22 16.4865 17.9746 21.0402 12.7188 21.8663V14.1797H15.2818L15.7695 11H12.7188V8.93662C12.7188 8.06671 13.1449 7.21876 14.5114 7.21876H15.8984V4.51173C15.8984 4.51173 14.6396 4.29688 13.4361 4.29688C10.9235 4.29688 9.28125 5.8197 9.28125 8.57658V11H6.48828V14.1797H9.28125V21.8663Z" fill="#005082"/>
</svg>
