<svg width="26" height="26" viewBox="0 0 26 26" fill="none" xmlns="http://www.w3.org/2000/svg">
<path d="M13 0C5.82029 0 0 5.82029 0 13C0 20.1797 5.82029 26 13 26C20.1797 26 26 20.1797 26 13C26 5.82029 20.1797 0 13 0ZM9.31506 19.4323H6.41779V10.3418H9.31506V19.4323ZM7.86642 9.15119C7.54402 9.15119 7.22886 9.05558 6.9608 8.87647C6.69273 8.69735 6.4838 8.44277 6.36043 8.14491C6.23705 7.84706 6.20477 7.5193 6.26766 7.2031C6.33056 6.88689 6.48581 6.59644 6.71378 6.36847C6.94175 6.1405 7.2322 5.98525 7.54841 5.92235C7.86461 5.85946 8.19237 5.89174 8.49023 6.01511C8.78808 6.13849 9.04267 6.34742 9.22178 6.61549C9.4009 6.88355 9.4965 7.19871 9.4965 7.52111C9.4965 7.95343 9.32476 8.36805 9.01906 8.67375C8.71336 8.97945 8.29875 9.15119 7.86642 9.15119ZM19.7641 19.4323H16.9203V14.4617C16.9203 14.2092 16.9602 12.5346 15.5381 12.5346C15.2854 12.5284 15.0349 12.5831 14.8079 12.6943C14.5808 12.8055 14.384 12.9698 14.234 13.1733C13.9728 13.5217 13.8333 13.9464 13.837 14.3819V19.4321H10.9967V10.3418H13.6991V11.6176C14.3459 10.6253 15.161 10.262 15.9628 10.1158C17.386 9.85634 19.7638 10.7228 19.7638 13.31L19.7641 19.4323Z" fill="#9B9B9B"/>
</svg>
