<svg width="22" height="22" viewBox="0 0 22 22" fill="none" xmlns="http://www.w3.org/2000/svg">
<path d="M11.0004 0C4.92507 0 0 4.92597 0 11.0004C0 17.0758 4.92507 22 11.0004 22C17.0758 22 22 17.0758 22 11.0004C22 4.92597 17.0754 0 11.0004 0ZM16.5415 8.78249C16.5474 8.90132 16.5496 9.02059 16.5496 9.1412C16.5496 12.8047 13.7612 17.0285 8.66232 17.0285C7.09702 17.0285 5.63938 16.5697 4.41269 15.7835C4.62979 15.8089 4.85002 15.8219 5.07383 15.8219C6.37289 15.8219 7.56831 15.3787 8.51669 14.6354C7.30385 14.6126 6.28042 13.8108 5.92751 12.7096C6.09637 12.7427 6.27014 12.7592 6.44883 12.7592C6.70167 12.7592 6.94648 12.7261 7.17922 12.6622C5.91053 12.4076 4.955 11.2863 4.955 9.9444C4.955 9.93234 4.955 9.92073 4.95545 9.90867C5.32891 10.1164 5.75642 10.241 6.21118 10.2558C5.46694 9.75768 4.97779 8.91025 4.97779 7.94802C4.97779 7.4401 5.11448 6.96345 5.35303 6.55426C6.72044 8.23124 8.76328 9.33508 11.0675 9.45033C11.0201 9.24797 10.9955 9.03578 10.9955 8.81867C10.9955 7.28822 12.2365 6.04678 13.7679 6.04678C14.5653 6.04678 15.2854 6.38361 15.7911 6.92191C16.4227 6.79816 17.016 6.56676 17.5516 6.24915C17.3439 6.89689 16.9047 7.4401 16.332 7.78273C16.8936 7.71572 17.4278 7.56652 17.9246 7.34629C17.5538 7.90335 17.0834 8.39161 16.5415 8.78249Z" fill="#005082"/>
</svg>
