<svg width="15" height="15" viewBox="0 0 15 15" fill="none" xmlns="http://www.w3.org/2000/svg">
<path d="M14.7701 13.4944L11.3697 10.0939C12.1883 9.00407 12.6303 7.67749 12.6288 6.3144C12.6288 2.83266 9.79614 0 6.3144 0C2.83266 0 0 2.83266 0 6.3144C0 9.79614 2.83266 12.6288 6.3144 12.6288C7.67749 12.6303 9.00407 12.1883 10.0939 11.3697L13.4944 14.7701C13.6665 14.924 13.891 15.0061 14.1218 14.9996C14.3526 14.9932 14.5721 14.8986 14.7354 14.7354C14.8986 14.5721 14.9932 14.3526 14.9996 14.1218C15.0061 13.891 14.924 13.6665 14.7701 13.4944ZM1.80411 6.3144C1.80411 5.42235 2.06864 4.55033 2.56423 3.80862C3.05983 3.06691 3.76424 2.48881 4.58839 2.14744C5.41253 1.80607 6.3194 1.71675 7.19431 1.89078C8.06922 2.06481 8.87288 2.49437 9.50365 3.12515C10.1344 3.75592 10.564 4.55958 10.738 5.43449C10.9121 6.3094 10.8227 7.21626 10.4814 8.04041C10.14 8.86456 9.56189 9.56897 8.82018 10.0646C8.07847 10.5602 7.20645 10.8247 6.3144 10.8247C5.11864 10.8232 3.97226 10.3476 3.12673 9.50207C2.2812 8.65654 1.80555 7.51016 1.80411 6.3144Z" fill="#888888"/>
</svg>
