<svg width="50" height="50" viewBox="0 0 50 50" fill="none" xmlns="http://www.w3.org/2000/svg">
<mask id="path-1-inside-1_461_176" fill="white">
<path d="M45.2332 24.1001C45.5927 23.1802 46.486 22.5283 47.5319 22.5283C48.895 22.5283 50 23.6349 50 25C50 26.365 48.895 27.4716 47.5319 27.4716C46.486 27.4716 45.5927 26.8197 45.2332 25.8998H40.6465V30.255H43.1591C43.6553 30.255 44.0577 30.6578 44.0577 31.1549C44.0577 31.6519 43.6553 32.0547 43.1591 32.0547H40.6465V36.4099H43.1591C43.6553 36.4099 44.0577 36.8128 44.0577 37.3097C44.0577 37.8068 43.6553 38.2096 43.1591 38.2096H40.6465V38.5557C40.6465 39.7485 39.681 40.7154 38.4899 40.7154H38.1804V43.1956C38.1804 43.6926 37.7781 44.0955 37.2818 44.0955C36.7855 44.0955 36.3832 43.6926 36.3832 43.1956V40.7154H32.0343V45.2264C32.953 45.5863 33.6039 46.4809 33.6039 47.5284C33.6039 48.8934 32.4988 50 31.1357 50C29.7727 50 28.6676 48.8934 28.6676 47.5284C28.6676 46.4809 29.3186 45.5863 30.2371 45.2264V40.7154H25.8883V43.1956C25.8883 43.6926 25.486 44.0955 24.9897 44.0955C24.4934 44.0955 24.0911 43.6926 24.0911 43.1956V40.7154H19.7422V45.2264C20.6608 45.5863 21.3117 46.4809 21.3117 47.5284C21.3117 48.8934 20.2068 50 18.8436 50C17.4805 50 16.3755 48.8934 16.3755 47.5284C16.3755 46.4809 17.0265 45.5863 17.9451 45.2264V40.7154H13.5962V43.1956C13.5962 43.6926 13.1939 44.0955 12.6976 44.0955C12.2013 44.0955 11.799 43.6926 11.799 43.1956V40.7154H11.4895C10.2984 40.7154 9.33286 39.7485 9.33286 38.5557V38.2096H6.82027C6.32396 38.2096 5.92168 37.8068 5.92168 37.3097C5.92168 36.8128 6.32396 36.4099 6.82027 36.4099H9.33286V32.0547H6.82027C6.32396 32.0547 5.92168 31.6519 5.92168 31.1549C5.92168 30.6578 6.32396 30.255 6.82027 30.255H9.33286V25.8998H4.76675C4.40739 26.8197 3.51398 27.4716 2.46809 27.4716C1.10504 27.4716 0 26.365 0 25C0 23.635 1.10497 22.5283 2.46809 22.5283C3.51405 22.5283 4.40739 23.1802 4.76675 24.1001H9.33286V19.745H6.82027C6.32396 19.745 5.92168 19.3421 5.92168 18.8451C5.92168 18.3481 6.32396 17.9452 6.82027 17.9452H9.33286V13.5901H6.82027C6.32396 13.5901 5.92168 13.1872 5.92168 12.6902C5.92168 12.1932 6.32396 11.7903 6.82027 11.7903H9.33286V11.5163C9.33286 10.3235 10.2984 9.35659 11.4895 9.35659H11.799V6.80439C11.799 6.30737 12.2013 5.90451 12.6976 5.90451C13.1939 5.90451 13.5962 6.30737 13.5962 6.80439V9.35659H17.9451V4.77361C17.0265 4.41373 16.3755 3.51911 16.3755 2.47165C16.3755 1.10664 17.4805 0 18.8436 0C20.2067 0 21.3117 1.10657 21.3117 2.47165C21.3117 3.51911 20.6608 4.41366 19.7422 4.77361V9.35659H24.0911V6.80439C24.0911 6.30737 24.4934 5.90451 24.9897 5.90451C25.4859 5.90451 25.8883 6.30737 25.8883 6.80439V9.35659H30.2371V4.77361C29.3186 4.41373 28.6676 3.51911 28.6676 2.47165C28.6676 1.10664 29.7726 0 31.1357 0C32.4988 0 33.6039 1.10657 33.6039 2.47165C33.6039 3.51911 32.9529 4.41366 32.0343 4.77361V9.35659H36.3832V6.80439C36.3832 6.30737 36.7855 5.90451 37.2818 5.90451C37.7781 5.90451 38.1804 6.30737 38.1804 6.80439V9.35659H38.4899C39.681 9.35659 40.6465 10.3235 40.6465 11.5163V11.7903H43.1591C43.6553 11.7903 44.0577 12.1932 44.0577 12.6902C44.0577 13.1872 43.6553 13.5901 43.1591 13.5901H40.6465V17.9452H43.1591C43.6553 17.9452 44.0577 18.3481 44.0577 18.8451C44.0577 19.3421 43.6553 19.745 43.1591 19.745H40.6465V24.1001H45.2332Z"/>
</mask>
<path d="M45.2332 24.1001C45.5927 23.1802 46.486 22.5283 47.5319 22.5283C48.895 22.5283 50 23.6349 50 25C50 26.365 48.895 27.4716 47.5319 27.4716C46.486 27.4716 45.5927 26.8197 45.2332 25.8998H40.6465V30.255H43.1591C43.6553 30.255 44.0577 30.6578 44.0577 31.1549C44.0577 31.6519 43.6553 32.0547 43.1591 32.0547H40.6465V36.4099H43.1591C43.6553 36.4099 44.0577 36.8128 44.0577 37.3097C44.0577 37.8068 43.6553 38.2096 43.1591 38.2096H40.6465V38.5557C40.6465 39.7485 39.681 40.7154 38.4899 40.7154H38.1804V43.1956C38.1804 43.6926 37.7781 44.0955 37.2818 44.0955C36.7855 44.0955 36.3832 43.6926 36.3832 43.1956V40.7154H32.0343V45.2264C32.953 45.5863 33.6039 46.4809 33.6039 47.5284C33.6039 48.8934 32.4988 50 31.1357 50C29.7727 50 28.6676 48.8934 28.6676 47.5284C28.6676 46.4809 29.3186 45.5863 30.2371 45.2264V40.7154H25.8883V43.1956C25.8883 43.6926 25.486 44.0955 24.9897 44.0955C24.4934 44.0955 24.0911 43.6926 24.0911 43.1956V40.7154H19.7422V45.2264C20.6608 45.5863 21.3117 46.4809 21.3117 47.5284C21.3117 48.8934 20.2068 50 18.8436 50C17.4805 50 16.3755 48.8934 16.3755 47.5284C16.3755 46.4809 17.0265 45.5863 17.9451 45.2264V40.7154H13.5962V43.1956C13.5962 43.6926 13.1939 44.0955 12.6976 44.0955C12.2013 44.0955 11.799 43.6926 11.799 43.1956V40.7154H11.4895C10.2984 40.7154 9.33286 39.7485 9.33286 38.5557V38.2096H6.82027C6.32396 38.2096 5.92168 37.8068 5.92168 37.3097C5.92168 36.8128 6.32396 36.4099 6.82027 36.4099H9.33286V32.0547H6.82027C6.32396 32.0547 5.92168 31.6519 5.92168 31.1549C5.92168 30.6578 6.32396 30.255 6.82027 30.255H9.33286V25.8998H4.76675C4.40739 26.8197 3.51398 27.4716 2.46809 27.4716C1.10504 27.4716 0 26.365 0 25C0 23.635 1.10497 22.5283 2.46809 22.5283C3.51405 22.5283 4.40739 23.1802 4.76675 24.1001H9.33286V19.745H6.82027C6.32396 19.745 5.92168 19.3421 5.92168 18.8451C5.92168 18.3481 6.32396 17.9452 6.82027 17.9452H9.33286V13.5901H6.82027C6.32396 13.5901 5.92168 13.1872 5.92168 12.6902C5.92168 12.1932 6.32396 11.7903 6.82027 11.7903H9.33286V11.5163C9.33286 10.3235 10.2984 9.35659 11.4895 9.35659H11.799V6.80439C11.799 6.30737 12.2013 5.90451 12.6976 5.90451C13.1939 5.90451 13.5962 6.30737 13.5962 6.80439V9.35659H17.9451V4.77361C17.0265 4.41373 16.3755 3.51911 16.3755 2.47165C16.3755 1.10664 17.4805 0 18.8436 0C20.2067 0 21.3117 1.10657 21.3117 2.47165C21.3117 3.51911 20.6608 4.41366 19.7422 4.77361V9.35659H24.0911V6.80439C24.0911 6.30737 24.4934 5.90451 24.9897 5.90451C25.4859 5.90451 25.8883 6.30737 25.8883 6.80439V9.35659H30.2371V4.77361C29.3186 4.41373 28.6676 3.51911 28.6676 2.47165C28.6676 1.10664 29.7726 0 31.1357 0C32.4988 0 33.6039 1.10657 33.6039 2.47165C33.6039 3.51911 32.9529 4.41366 32.0343 4.77361V9.35659H36.3832V6.80439C36.3832 6.30737 36.7855 5.90451 37.2818 5.90451C37.7781 5.90451 38.1804 6.30737 38.1804 6.80439V9.35659H38.4899C39.681 9.35659 40.6465 10.3235 40.6465 11.5163V11.7903H43.1591C43.6553 11.7903 44.0577 12.1932 44.0577 12.6902C44.0577 13.1872 43.6553 13.5901 43.1591 13.5901H40.6465V17.9452H43.1591C43.6553 17.9452 44.0577 18.3481 44.0577 18.8451C44.0577 19.3421 43.6553 19.745 43.1591 19.745H40.6465V24.1001H45.2332Z" stroke="#333333" stroke-width="3" mask="url(#path-1-inside-1_461_176)"/>
</svg>
