<svg width="51" height="12" viewBox="0 0 51 12" fill="none" xmlns="http://www.w3.org/2000/svg">
<path d="M49.3871 5.59775L49.4008 1.8457L0.765919 1.66754L0.752167 5.41959C0.749348 6.19429 1.38394 6.83353 2.15852 6.83634L2.15579 7.58634L2.15854 6.83634L9.57343 6.8635L10.3234 6.86625L10.3207 7.61623L10.3131 9.69096V9.69102C10.3119 10.0114 10.5763 10.2777 10.8967 10.2789L39.2071 10.3826C39.2071 10.3826 39.2071 10.3826 39.2071 10.3826C39.5276 10.3837 39.7939 10.1193 39.7951 9.79898V9.79894L39.8027 7.72422L39.8055 6.97424L40.5554 6.97698L47.9703 7.00415C48.745 7.00697 49.3842 6.37242 49.3871 5.59777C49.3871 5.59777 49.3871 5.59776 49.3871 5.59775ZM22.4803 3.16472C22.8184 2.82663 23.3039 2.72586 23.7298 2.86238C23.9296 2.45067 24.3516 2.16675 24.8401 2.16675H25.2594C25.7525 2.16675 26.1781 2.45615 26.3754 2.87444C26.8126 2.71399 27.3224 2.80924 27.6733 3.16018L27.143 3.69051L27.6733 3.16018L27.9698 3.45667C28.316 3.80286 28.4134 4.3036 28.2619 4.73673C28.6612 4.94086 28.9346 5.35624 28.9346 5.83556V6.2549C28.9346 6.74447 28.6494 7.16739 28.2361 7.36658C28.3741 7.79329 28.2736 8.28032 27.9347 8.61922L27.6382 8.91572C27.292 9.26188 26.7913 9.35926 26.3582 9.20786C26.1541 9.60714 25.7387 9.88054 25.2594 9.88054H24.8401C24.3654 9.88054 23.9532 9.61233 23.7471 9.21911C23.3255 9.34718 22.8488 9.24454 22.5154 8.91118L22.2189 8.61469C21.8809 8.27662 21.7801 7.79116 21.9166 7.3652C21.5049 7.16545 21.221 6.74347 21.221 6.25509C21.221 6.25505 21.221 6.25501 21.221 6.25497L21.2209 5.83568V5.83556C21.2209 5.35747 21.4929 4.94294 21.8906 4.73826C21.7407 4.30582 21.8384 3.80659 22.1838 3.46121L22.4803 3.16472Z" stroke="#333333" stroke-width="1.5"/>
</svg>
